# xmcd
#
# Track frame offsets: 
#        150
#        13158
#        26393
#        37235
#        49463
#        60643
#        71993
#        80592
#        91751
#        111990
#        125284
#        137763
#        149695
#        159203
#        170355
#        184565
#        194849
#        204858
#        215822
#
# Disc length: 3060 seconds
#
# Revision: 0
# Processed by: cddbd v1.5.2PL0 Copyright (c) Steve Scherf et al.
# Submitted via: ExactAudioCopyFreeDBPlugin 1.0
#
DISCID=1f0bf213
DTITLE=Screamin' Jay Hawkins - Frenzy
DYEAR=2010
DGENRE=Blues
TTITLE0=Darling Please Forgive Me
TTITLE1=Orange Coloured Sky
TTITLE2=Hong Kong
TTITLE3=Temptation
TTITLE4=I Love Paris
TTITLE5=I Put A Spell On You
TTITLE6=Swing Low, Sweet Chariot
TTITLE7=Yellow Coat
TTITLE8=Ol' Man River
TTITLE9=If You Are But A Dream
TTITLE10=Take Me Back To My Boots And Saddle
TTITLE11=Deep Purple
TTITLE12=You Made Me Love You (I Didn't Want To Do It)
TTITLE13=Little Demon
TTITLE14=Alligator Wine
TTITLE15=Frenzy
TTITLE16=Person To Person
TTITLE17=There's Something Wrong With You
TTITLE18=(She Put The) Whammy On Me
EXTD=
EXTT0=
EXTT1=
EXTT2=
EXTT3=
EXTT4=
EXTT5=
EXTT6=
EXTT7=
EXTT8=
EXTT9=
EXTT10=
EXTT11=
EXTT12=
EXTT13=
EXTT14=
EXTT15=
EXTT16=
EXTT17=
EXTT18=
PLAYORDER=
